<svg width="50" height="38" viewBox="0 0 50 38" fill="none" xmlns="http://www.w3.org/2000/svg">
<path d="M46.7089 31.9695C46.7101 33.617 45.3506 34.9535 43.6748 34.9529H41.1458C39.4694 34.9529 38.11 33.6176 38.1094 31.9695V29.1341H43.6748C45.35 29.1347 46.7083 27.8005 46.7089 26.1536V31.9695Z" fill="#F2AC00"/>
<path d="M46.7094 26.1507V26.1536C46.7088 27.8005 45.3505 29.1347 43.6753 29.1341H6.84992C5.17294 29.1347 3.81348 27.7987 3.81348 26.1507V18.7248C3.81406 17.4097 4.40148 16.1617 5.42107 15.3108L7.00045 13.8679H44.131V13.9165L45.2841 15.1287C46.1949 15.9738 46.7106 17.1513 46.7094 18.3826V26.1507ZM42.2588 24.4101V19.537H35.0258V24.4101H42.2588ZM29.8914 23.4158V20.5313H20.6339V23.4158H29.8914ZM15.4988 24.4101V19.537H8.26642V24.4101H15.4988Z" fill="#FFC165"/>
<path d="M40.6655 4.6748L44.1306 13.8678H7L10.4651 4.6748C10.9061 3.50422 12.0415 2.72729 13.3116 2.72729H37.819C39.089 2.72729 40.2245 3.50422 40.6655 4.6748Z" fill="#FFC165"/>
<path d="M37.2541 6.48085L39.9419 12.8879H11.1406L13.8284 6.48085C14.1705 5.66501 15.0512 5.12354 16.0364 5.12354H35.0461C36.0313 5.12354 36.912 5.66501 37.2541 6.48085Z" fill="#FFAC31"/>
<path d="M35.0264 19.5369H42.2594V24.41H35.0264V19.5369Z" fill="white"/>
<path d="M20.6348 20.5312H29.8923V23.4158H20.6348V20.5312Z" fill="#FFAC31"/>
<path d="M8.2666 19.5369H15.499V24.41H8.2666V19.5369Z" fill="white"/>
<path d="M12.413 29.1841V31.9692C12.4136 33.6167 11.0547 34.9526 9.37833 34.9526H6.84816C5.17235 34.952 3.81406 33.6167 3.81348 31.9692V26.1504C3.81348 27.7985 5.17294 29.1344 6.84992 29.1338H12.413V29.1841Z" fill="#F2AC00"/>
</svg>
