<svg width="60" height="61" viewBox="0 0 60 61" fill="none" xmlns="http://www.w3.org/2000/svg">
<path d="M54.6421 35.0001V43.6519H39.1546V39.2294C39.1607 36.7689 38.0308 34.4433 36.0928 32.9281L36.1251 32.8859C37.0971 29.5147 40.1829 26.9998 43.8977 26.9998H46.668C51.0792 27.0068 54.6491 30.5889 54.6421 35.0001Z" fill="#FFC165"/>
<path d="M50.6415 18.312V18.3513C50.642 21.3134 48.2522 23.7205 45.2906 23.7421H45.2124C42.2156 23.7435 39.7846 21.3148 39.7832 18.3181V18.3096C39.7841 15.3134 42.2119 12.8847 45.2077 12.8828H45.2152C48.211 12.8828 50.6401 15.311 50.6415 18.3073V18.312Z" fill="#FFC165"/>
<path d="M39.1546 43.652V47.8814H20.4099V39.2296C20.4089 39.2207 20.4089 39.2118 20.4099 39.2033C20.4169 34.7917 23.999 31.2218 28.4102 31.2293H31.1796C35.5913 31.2354 39.1621 34.8175 39.1546 39.2296V43.652Z" fill="#FFAC31"/>
<path d="M35.2109 22.4846V22.4874C35.2109 25.4832 32.7826 27.9123 29.7869 27.9137H29.7817C26.7845 27.9151 24.3539 25.4869 24.3525 22.4897V22.4822C24.353 19.4865 26.7808 17.0573 29.777 17.0554H29.784C32.7803 17.0559 35.2095 19.4841 35.2109 22.4799V22.4846Z" fill="#FFAC31"/>
<path d="M23.4388 32.8282L23.4988 32.9074C21.5515 34.4161 20.4116 36.7398 20.4102 39.2032C20.4093 39.2116 20.4093 39.2205 20.4102 39.2294V43.6519H4.97949V34.9738C4.98699 30.5627 8.56862 26.9923 12.9798 26.9998H15.7239C19.307 27.0063 22.4532 29.3835 23.4388 32.8282Z" fill="#FFC165"/>
<path d="M19.7802 18.3073V18.312C19.7596 19.7574 19.1784 21.1381 18.1595 22.1631C17.1509 23.1764 15.78 23.7444 14.351 23.7421C11.3538 23.7435 8.92328 21.3148 8.92188 18.3181V18.3096C8.92234 15.3134 11.3506 12.8847 14.3463 12.8828H14.3534C17.3496 12.8828 19.7788 15.311 19.7802 18.3073Z" fill="#FFC165"/>
</svg>
