<svg width="40" height="41" viewBox="0 0 40 41" fill="none" xmlns="http://www.w3.org/2000/svg">
<g clip-path="url(#clip0_512_6072)">
<path d="M20.1196 38.0473C19.8263 38.0473 19.533 37.9331 19.3093 37.7047L3.81347 21.8927C-0.517251 17.4737 -0.517251 10.2834 3.81347 5.86435C5.91129 3.72364 8.70056 2.54468 11.6674 2.54468C14.6342 2.54468 17.4235 3.72364 19.5213 5.86427L20.1196 6.47487L20.718 5.86435C25.0487 1.44524 32.0951 1.44524 36.4258 5.86435C40.7565 10.2834 40.7565 17.4737 36.4258 21.8928L20.93 37.7048C20.7063 37.9331 20.413 38.0473 20.1196 38.0473Z" fill="#FFC165"/>
<path d="M20.9305 37.7049L36.4263 21.8928C40.757 17.4738 40.757 10.2835 36.4263 5.86438C32.0956 1.44527 25.0492 1.44527 20.7184 5.86438L20.1201 6.47498V38.0475C20.4134 38.0474 20.7067 37.9332 20.9305 37.7049Z" fill="#FFAC31"/>
<path d="M17.0642 27.7025C17.0357 27.7025 17.007 27.7014 16.9783 27.6992C16.4796 27.6612 16.0627 27.2976 15.9482 26.8009L13.8174 17.56L12.0388 23.0047C11.8827 23.4823 11.4447 23.8044 10.9515 23.8044H1.7066C1.07367 23.8044 0.560547 23.2808 0.560547 22.6349C0.560547 21.9891 1.07367 21.4655 1.7066 21.4655H10.1254L12.9203 12.9096C13.0824 12.4134 13.5472 12.0867 14.0595 12.1111C14.5715 12.1348 15.0058 12.5025 15.1232 13.0115L17.3478 22.6595L20.5838 14.4043C20.7642 13.9441 21.2098 13.6499 21.6949 13.6702C22.1803 13.6905 22.6005 14.0209 22.7433 14.4947L24.7947 21.2976L26.6832 15.9982C26.8553 15.5152 27.3146 15.2028 27.8197 15.23C28.3229 15.2566 28.75 15.6155 28.8721 16.1142L30.1832 21.4655H38.5332C39.1662 21.4655 39.6793 21.9891 39.6793 22.6349C39.6793 23.2808 39.1662 23.8044 38.5332 23.8044H29.2884C28.7625 23.8044 28.3041 23.4391 28.1766 22.9185L27.5571 20.3901L25.7812 25.3734C25.6129 25.8458 25.1676 26.156 24.6753 26.1429C24.183 26.1302 23.7536 25.798 23.6088 25.3177L21.5069 18.3473L18.1278 26.9674C17.9529 27.4137 17.5297 27.7025 17.0642 27.7025Z" fill="white"/>
<path d="M38.5334 21.4655H30.1834L28.8723 16.1142C28.7502 15.6155 28.3231 15.2566 27.82 15.23C27.3148 15.2028 26.8556 15.5152 26.6835 15.9982L24.795 21.2976L22.7436 14.4947C22.6007 14.0209 22.1806 13.6905 21.6952 13.6702C21.2101 13.6499 20.7645 13.944 20.5841 14.4044L20.1201 15.588V21.8855L21.5071 18.3473L23.6089 25.3177C23.7538 25.798 24.1832 26.1302 24.6755 26.1429C25.1677 26.156 25.6131 25.8457 25.7814 25.3734L27.5573 20.3901L28.1767 22.9185C28.3043 23.4391 28.7627 23.8044 29.2886 23.8044H38.5334C39.1664 23.8044 39.6795 23.2808 39.6795 22.6349C39.6795 21.9891 39.1664 21.4655 38.5334 21.4655Z" fill="white"/>
</g>
<defs>
<clipPath id="clip0_512_6072">
<rect width="39.1188" height="39.9171" fill="white" transform="translate(0.560547 0.337402)"/>
</clipPath>
</defs>
</svg>
