<svg width="40" height="41" viewBox="0 0 40 41" fill="none" xmlns="http://www.w3.org/2000/svg">
<g clip-path="url(#clip0_512_6098)">
<path d="M19.8696 38.5619C19.5763 38.5619 19.283 38.4478 19.0593 38.2194L3.56347 22.4073C-0.767251 17.9883 -0.767251 10.798 3.56347 6.37899C5.66129 4.23828 8.45056 3.05933 11.4174 3.05933C14.3842 3.05933 17.1735 4.23828 19.2713 6.37892L19.8696 6.98952L20.468 6.37899C24.7987 1.95989 31.8451 1.95989 36.1758 6.37899C40.5065 10.7981 40.5065 17.9884 36.1758 22.4074L20.68 38.2194C20.4563 38.4478 20.163 38.5619 19.8696 38.5619Z" fill="#FFC165"/>
<path d="M20.6805 38.2195L36.1763 22.4075C40.507 17.9884 40.507 10.7981 36.1763 6.37902C31.8456 1.95992 24.7992 1.95992 20.4684 6.37902L19.8701 6.98963V38.5621C20.1634 38.562 20.4567 38.4479 20.6805 38.2195Z" fill="#FFAC31"/>
<path d="M16.8142 28.2172C16.7857 28.2172 16.757 28.2161 16.7283 28.2139C16.2296 28.1758 15.8127 27.8122 15.6982 27.3156L13.5674 18.0746L11.7888 23.5193C11.6327 23.9969 11.1947 24.319 10.7015 24.319H1.4566C0.823675 24.319 0.310547 23.7954 0.310547 23.1496C0.310547 22.5037 0.823675 21.9801 1.4566 21.9801H9.87539L12.6703 13.4242C12.8324 12.9281 13.2972 12.6014 13.8095 12.6258C14.3215 12.6495 14.7558 13.0172 14.8732 13.5262L17.0978 23.1741L20.3338 14.919C20.5142 14.4587 20.9598 14.1645 21.4449 14.1848C21.9303 14.2052 22.3505 14.5356 22.4933 15.0094L24.5447 21.8123L26.4332 16.5129C26.6053 16.0298 27.0646 15.7174 27.5697 15.7446C28.0729 15.7713 28.5 16.1302 28.6221 16.6289L29.9332 21.9801H38.2832C38.9162 21.9801 39.4293 22.5037 39.4293 23.1496C39.4293 23.7954 38.9162 24.319 38.2832 24.319H29.0384C28.5125 24.319 28.0541 23.9537 27.9266 23.4332L27.3071 20.9048L25.5312 25.8881C25.3629 26.3605 24.9176 26.6706 24.4253 26.6575C23.933 26.6449 23.5036 26.3127 23.3588 25.8323L21.2569 18.862L17.8778 27.482C17.7029 27.9284 17.2797 28.2172 16.8142 28.2172Z" fill="white"/>
<path d="M38.2834 21.9801H29.9334L28.6223 16.6289C28.5002 16.1302 28.0731 15.7713 27.57 15.7446C27.0648 15.7174 26.6056 16.0298 26.4335 16.5129L24.545 21.8123L22.4936 15.0094C22.3507 14.5355 21.9306 14.2052 21.4452 14.1848C20.9601 14.1646 20.5145 14.4586 20.3341 14.919L19.8701 16.1026V22.4002L21.2571 18.862L23.3589 25.8324C23.5038 26.3127 23.9332 26.6449 24.4255 26.6575C24.9177 26.6706 25.3631 26.3604 25.5314 25.8881L27.3073 20.9048L27.9267 23.4332C28.0543 23.9538 28.5127 24.319 29.0386 24.319H38.2834C38.9164 24.319 39.4295 23.7954 39.4295 23.1496C39.4295 22.5037 38.9164 21.9801 38.2834 21.9801Z" fill="white"/>
</g>
<defs>
<clipPath id="clip0_512_6098">
<rect width="39.1188" height="39.9171" fill="white" transform="translate(0.310547 0.852051)"/>
</clipPath>
</defs>
</svg>
