<svg width="34" height="34" viewBox="0 0 34 34" fill="none" xmlns="http://www.w3.org/2000/svg">
<g clip-path="url(#clip0_512_6081)">
<path d="M29.2976 0.779297H22.2962C19.9369 0.779297 18.0176 2.69864 18.0176 5.05791V12.0593C18.0176 14.4185 19.9369 16.3379 22.2962 16.3379H29.2976C31.6568 16.3379 33.5762 14.4185 33.5762 12.0593V5.05791C33.5762 2.69864 31.6568 0.779297 29.2976 0.779297ZM31.5017 12.0593C31.5017 12.6321 31.0373 13.0965 30.4645 13.0965C29.8916 13.0965 29.4272 12.6321 29.4272 12.0593V5.05791C29.4272 4.98641 29.3691 4.92826 29.2976 4.92826C28.7247 4.92826 28.2603 4.46383 28.2603 3.89102C28.2603 3.3182 28.7247 2.85378 29.2976 2.85378C30.5129 2.85378 31.5017 3.84253 31.5017 5.05791V12.0593Z" fill="#FFAC31"/>
<path d="M11.6647 0.779297H4.66338C2.30411 0.779297 0.384766 2.69864 0.384766 5.05791V12.0593C0.384766 14.4185 2.30411 16.3379 4.66338 16.3379H11.6647C14.024 16.3379 15.9434 14.4185 15.9434 12.0593V5.05791C15.9434 2.69864 14.024 0.779297 11.6647 0.779297ZM13.8689 12.0593C13.8689 12.6321 13.4045 13.0965 12.8316 13.0965C12.2588 13.0965 11.7944 12.6321 11.7944 12.0593V5.05791C11.7944 4.98641 11.7363 4.92826 11.6647 4.92826C11.0919 4.92826 10.6275 4.46383 10.6275 3.89102C10.6275 3.3182 11.0919 2.85378 11.6647 2.85378C12.8801 2.85378 13.8689 3.84253 13.8689 5.05791V12.0593Z" fill="#FFAC31"/>
<path d="M11.6647 18.4124H4.66338C2.30411 18.4124 0.384766 20.3317 0.384766 22.691V29.6923C0.384766 32.0516 2.30411 33.9709 4.66338 33.9709H11.6647C14.024 33.9709 15.9434 32.0516 15.9434 29.6923V22.691C15.9434 20.3317 14.024 18.4124 11.6647 18.4124ZM13.8689 29.6923C13.8689 30.2652 13.4045 30.7296 12.8316 30.7296C12.2588 30.7296 11.7944 30.2652 11.7944 29.6923V22.691C11.7944 22.6195 11.7363 22.5613 11.6647 22.5613C11.0919 22.5613 10.6275 22.0969 10.6275 21.5241C10.6275 20.9513 11.0919 20.4868 11.6647 20.4868C12.8801 20.4868 13.8689 21.4756 13.8689 22.691V29.6923Z" fill="#FFAC31"/>
<path d="M25.7969 18.4124C21.5074 18.4124 18.0176 21.9021 18.0176 26.1917C18.0176 30.4812 21.5074 33.9709 25.7969 33.9709C30.0864 33.9709 33.5762 30.4812 33.5762 26.1917C33.5762 21.9021 30.0864 18.4124 25.7969 18.4124ZM31.1864 28.6512C31.0104 29.0286 30.6363 29.2503 30.2456 29.2503C30.0988 29.2503 29.9498 29.219 29.8079 29.1529C29.2887 28.9108 29.0641 28.2937 29.3062 27.7745C29.7161 26.8956 29.7591 25.9098 29.4275 24.9986C29.0958 24.0874 28.4292 23.3599 27.5503 22.9501C27.0311 22.708 26.8065 22.0909 27.0486 21.5717C27.2907 21.0525 27.9077 20.8278 28.4271 21.07C29.8081 21.714 30.8558 22.8572 31.3769 24.2891C31.898 25.721 31.8303 27.2702 31.1864 28.6512Z" fill="#FFAC31"/>
</g>
<defs>
<clipPath id="clip0_512_6081">
<rect width="33.1917" height="33.1917" fill="white" transform="translate(0.384766 0.779297)"/>
</clipPath>
</defs>
</svg>
