<svg width="37" height="36" viewBox="0 0 37 36" fill="none" xmlns="http://www.w3.org/2000/svg">
<g clip-path="url(#clip0_512_6076)">
<path d="M23.0923 7.87586L4.63502 5.07031L0.0332031 9.52368L15.3788 15.3404L23.0923 7.87586Z" fill="#F2AC00"/>
<path d="M21.1416 20.7799L27.1378 35.5949L31.7396 31.1416L28.8475 13.3225L21.1416 20.7799Z" fill="#0050C3"/>
<path d="M21.1416 20.7799L27.1378 35.5949L31.7396 31.1416L28.8475 13.3225L21.1416 20.7799Z" fill="#F2AC00"/>
<path d="M15.9381 32.4289L16.3395 25.7976L34.3124 8.40438C34.9965 7.74238 35.8157 6.35843 36.3045 5.03907C37.0151 3.12085 36.9292 1.66042 36.0563 0.815607C35.1833 -0.0290719 33.6745 -0.112213 31.6919 0.575421C30.3286 1.04843 28.8986 1.84109 28.2144 2.50316L10.2416 19.8963L3.38922 20.2847L0.103516 23.4643L8.56171 27.4141L12.6532 35.608L15.9381 32.4289Z" fill="#FFC165"/>
<path d="M8.57324 27.4346L12.654 35.607L15.9389 32.4279L16.3403 25.7966L34.3132 8.40345C34.9973 7.74145 35.8165 6.3575 36.3053 5.03814C37.0126 3.1286 36.9304 1.6729 36.0685 0.826416L8.57324 27.4346Z" fill="#FFAC31"/>
<path d="M5.45699 28.9517L6.98145 30.427L12.5503 25.0378L11.0259 23.5625L5.45699 28.9517Z" fill="#F2AC00"/>
<path d="M6.98189 30.4273L12.5508 25.0381L11.8003 24.3118L6.23143 29.7011L6.98189 30.4273Z" fill="#F2AC00"/>
</g>
<defs>
<clipPath id="clip0_512_6076">
<rect width="36.7479" height="35.5625" fill="white" transform="translate(0.0332031 0.0791016)"/>
</clipPath>
</defs>
</svg>
