<svg width="41" height="42" viewBox="0 0 41 42" fill="none" xmlns="http://www.w3.org/2000/svg">
<g clip-path="url(#clip0_512_6109)">
<path d="M25.3071 11.7677C24.3801 11.7677 23.6278 11.0154 23.6278 10.0884V7.56937H16.9104V10.0884C16.9104 11.0154 16.1581 11.7677 15.2311 11.7677C14.3041 11.7677 13.5518 11.0154 13.5518 10.0884V7.56937C13.5518 5.71706 15.0581 4.21069 16.9104 4.21069H23.6278C25.4801 4.21069 26.9865 5.71706 26.9865 7.56937V10.0884C26.9865 11.0154 26.2341 11.7677 25.3071 11.7677Z" fill="#F2AC00"/>
<path d="M20.6723 24.2957L20.2693 24.3628L19.8662 24.2957L0.117188 17.7126V33.1794C0.117188 35.732 2.18278 37.7976 4.73537 37.7976H35.8032C38.3558 37.7976 40.4214 35.732 40.4214 33.1794V17.7126L20.6723 24.2957Z" fill="#F2AC00"/>
<path d="M40.4214 13.867V17.7127L20.6723 24.2957L20.2693 24.3628L19.8662 24.2957L0.117188 17.7127V13.867C0.117188 11.3144 2.18278 9.24878 4.73537 9.24878H35.8032C38.3558 9.24878 40.4214 11.3144 40.4214 13.867Z" fill="#FFC026"/>
<path d="M20.2691 4.21069H16.9104C15.0581 4.21069 13.5518 5.71706 13.5518 7.56937V9.24871H16.9104V7.56937H20.2691V4.21069Z" fill="#F2AC00"/>
<path d="M0.117188 17.7126V33.1794C0.117188 35.732 2.18278 37.7976 4.73537 37.7976H20.2693V24.3628L19.8662 24.2957L0.117188 17.7126Z" fill="#FABA1D"/>
<path d="M20.2693 9.24878H16.9106H13.5519H4.73537C2.18278 9.24878 0.117188 11.3144 0.117188 13.867V17.7127L19.8662 24.2957L20.2693 24.3628V9.24878Z" fill="#FFC165"/>
<ellipse cx="20.4275" cy="23.7017" rx="2.53885" ry="2.53885" fill="white"/>
</g>
<defs>
<clipPath id="clip0_512_6109">
<rect width="40.3042" height="40.3042" fill="white" transform="translate(0.117188 0.852051)"/>
</clipPath>
</defs>
</svg>
