<svg width="42" height="42" viewBox="0 0 42 42" fill="none" xmlns="http://www.w3.org/2000/svg">
<g clip-path="url(#clip0_512_6106)">
<path d="M25.9546 11.7677C25.0276 11.7677 24.2753 11.0154 24.2753 10.0884V7.56937H17.5579V10.0884C17.5579 11.0154 16.8056 11.7677 15.8786 11.7677C14.9516 11.7677 14.1992 11.0154 14.1992 10.0884V7.56937C14.1992 5.71706 15.7056 4.21069 17.5579 4.21069H24.2753C26.1276 4.21069 27.6339 5.71706 27.6339 7.56937V10.0884C27.6339 11.0154 26.8816 11.7677 25.9546 11.7677Z" fill="#F2AC00"/>
<path d="M21.3198 24.2957L20.9167 24.3628L20.5137 24.2957L0.764648 17.7126V33.1794C0.764648 35.732 2.83024 37.7976 5.38283 37.7976H36.4506C39.0032 37.7976 41.0688 35.732 41.0688 33.1794V17.7126L21.3198 24.2957Z" fill="#F2AC00"/>
<path d="M41.0688 13.867V17.7127L21.3198 24.2957L20.9167 24.3628L20.5137 24.2957L0.764648 17.7127V13.867C0.764648 11.3144 2.83024 9.24878 5.38283 9.24878H36.4506C39.0032 9.24878 41.0688 11.3144 41.0688 13.867Z" fill="#FFC026"/>
<path d="M20.9166 4.21069H17.5579C15.7056 4.21069 14.1992 5.71706 14.1992 7.56937V9.24871H17.5579V7.56937H20.9166V4.21069Z" fill="#F2AC00"/>
<path d="M0.764648 17.7126V33.1794C0.764648 35.732 2.83024 37.7976 5.38283 37.7976H20.9167V24.3628L20.5137 24.2957L0.764648 17.7126Z" fill="#FABA1D"/>
<path d="M20.9167 9.24878H17.5581H14.1994H5.38283C2.83024 9.24878 0.764648 11.3144 0.764648 13.867V17.7127L20.5137 24.2957L20.9167 24.3628V9.24878Z" fill="#FFC165"/>
<ellipse cx="21.075" cy="23.7017" rx="2.53885" ry="2.53885" fill="white"/>
</g>
<defs>
<clipPath id="clip0_512_6106">
<rect width="40.3042" height="40.3042" fill="white" transform="translate(0.764648 0.852051)"/>
</clipPath>
</defs>
</svg>
